<svg id="Layer_1" data-name="Layer 1" xmlns="http://www.w3.org/2000/svg" viewBox="0 0 200 35.3"><title>Untitled-1</title><polygon points="18.56 0 24.29 11.62 37.11 13.48 27.83 22.53 30.02 35.3 18.56 29.27 7.09 35.3 9.28 22.53 0 13.48 12.82 11.62 18.56 0"/><polygon points="59.28 0 65.01 11.62 77.83 13.48 68.56 22.53 70.75 35.3 59.28 29.27 47.81 35.3 50 22.53 40.72 13.48 53.54 11.62 59.28 0"/><polygon points="100 0 105.73 11.62 118.56 13.48 109.28 22.53 111.47 35.3 100 29.27 88.53 35.3 90.72 22.53 81.44 13.48 94.27 11.62 100 0"/><polygon points="140.72 0 146.46 11.62 159.28 13.48 150 22.53 152.19 35.3 140.72 29.27 129.25 35.3 131.44 22.53 122.17 13.48 134.99 11.62 140.72 0"/><polygon points="181.44 0 187.18 11.62 200 13.48 190.72 22.53 192.91 35.3 181.44 29.27 169.98 35.3 172.17 22.53 162.89 13.48 175.71 11.62 181.44 0"/></svg>